<?xml version="1.0" encoding="utf-8"?>
<!-- Generator: Adobe Illustrator 26.3.1, SVG Export Plug-In . SVG Version: 6.00 Build 0)  -->
<svg version="1.1" id="Layer_1" xmlns="http://www.w3.org/2000/svg" xmlns:xlink="http://www.w3.org/1999/xlink" x="0px" y="0px"
	 viewBox="0 0 35 32" style="enable-background:new 0 0 35 32;" xml:space="preserve">
<style type="text/css">
	.st0{fill:#061935;}
	.st1{fill:#9BA8BB;}
</style>
<g>
	<rect y="-1.5" class="st0" width="35" height="35"/>
	<g>
		<polygon class="st1" points="4.4,13.1 0,13.1 0,17.9 4.4,17.9 4.4,25.9 9.7,25.9 9.7,5.6 4.4,5.6 		"/>
		<path class="st1" d="M27.8,15.5c-1.3-1.1-3.3-1.8-6.2-2.1c-1.1-0.1-1.9-0.3-2.4-0.6c-0.5-0.3-0.7-0.7-0.7-1.2c0-0.5,0.2-1,0.7-1.3
			c0.5-0.3,1.1-0.5,2-0.5s1.6,0.2,2,0.5c0.5,0.4,0.7,0.9,0.7,1.5h5.1c0-1.3-0.3-2.5-1-3.5c-0.7-1-1.6-1.8-2.8-2.3
			c-1.2-0.6-2.6-0.8-4.1-0.8c-1.6,0-2.9,0.3-4.1,0.8c-1.2,0.5-2.1,1.3-2.8,2.2c-0.7,0.9-1,2-1,3.2c0,1.8,0.6,3.3,1.8,4.4
			c1.2,1.1,3.1,1.8,5.7,2.1c1.3,0.1,2.2,0.3,2.8,0.6c0.6,0.3,0.9,0.7,0.9,1.2c0,0.6-0.3,1-0.8,1.3c-0.5,0.3-1.3,0.5-2.2,0.5
			c-1,0-1.8-0.2-2.3-0.6s-0.8-0.9-0.8-1.6h-5.2c0,2.1,0.7,3.8,2.2,5c1.5,1.2,3.5,1.8,6.2,1.8c1.6,0,3.1-0.3,4.3-0.8
			c1.3-0.5,2.2-1.3,2.9-2.2c0.7-1,1-2.1,1-3.3C29.7,18.1,29.1,16.6,27.8,15.5z"/>
	</g>
</g>
</svg>
