<?xml version="1.0" encoding="utf-8"?>
<!-- Generator: Adobe Illustrator 26.3.1, SVG Export Plug-In . SVG Version: 6.00 Build 0)  -->
<svg version="1.1" id="Layer_1" xmlns="http://www.w3.org/2000/svg" xmlns:xlink="http://www.w3.org/1999/xlink" x="0px" y="0px"
	 viewBox="0 0 143 32" style="enable-background:new 0 0 143 32;" xml:space="preserve">
<style type="text/css">
	.st0{fill:none;}
	.st1{fill:#FFFFFF;}
	.st2{fill:#061935;}
	.st3{fill:#9AA7BA;}
</style>
<path class="st0" d="M0,0"/>
<path class="st0" d="M0,0"/>
<g>
	<path class="st1" d="M42.8,15.8H39v4.9c0,0.5-0.6,0.7-1.1,0.7c-0.6,0-1.1-0.2-1.1-0.7v-11c0-0.5,0.5-0.7,1.1-0.7
		c0.5,0,1.1,0.2,1.1,0.7V14h3.8V9.6c0-0.5,0.5-0.7,1.1-0.7c0.5,0,1.1,0.2,1.1,0.7v11c0,0.5-0.6,0.7-1.1,0.7c-0.6,0-1.1-0.2-1.1-0.7
		V15.8z"/>
	<path class="st1" d="M53.5,16.5v4.2c0,0.4-0.5,0.7-1.1,0.7c-0.6,0-1-0.3-1-0.7v-0.5c-0.6,0.7-1.4,1.3-2.6,1.3
		c-1.2,0-2.2-0.7-2.2-2.3c0-2,1.6-2.5,4-2.5h0.7v-0.2c0-0.7-0.4-1.6-1.5-1.6c-1.3,0-1.5,0.5-1.9,0.5c-0.5,0-0.7-0.6-0.7-1.1
		c0-0.7,1.5-1.2,2.7-1.2C52.5,13.2,53.5,14.8,53.5,16.5z M51.3,17.9H51c-1.1,0-2.2,0.1-2.2,1.1c0,0.6,0.4,0.9,0.9,0.9
		c0.7,0,1.6-0.8,1.6-1.6V17.9z"/>
	<path class="st1" d="M54.5,14.5c0-0.1-0.1-0.2-0.1-0.3c0-0.6,0.9-1.1,1.5-1.1c0.3,0,0.5,0.1,0.6,0.4l2,5.1l1.6-5.1
		c0.1-0.3,0.3-0.4,0.6-0.4c0.5,0,1.5,0.5,1.5,1.1c0,0.1,0,0.2-0.1,0.3l-2.5,6.3c-0.8,2-1.3,4.3-4.3,4.3c-0.6,0-1-0.1-1-0.9
		c0-0.5,0.2-0.9,0.6-0.9c0.7,0,2.3-0.5,2.4-2.5L54.5,14.5z"/>
	<path class="st1" d="M68.1,16.5l2.5,3.6c0.1,0.1,0.1,0.2,0.1,0.4c0,0.5-0.7,1.1-1.2,1.1c-0.2,0-0.4-0.1-0.5-0.3l-2.3-3.4l-1.1,1
		v1.9c0,0.3-0.5,0.7-1.1,0.7c-0.6,0-1.1-0.4-1.1-0.7V9.2c0-0.4,0.4-0.7,1.1-0.7c0.6,0,1.1,0.3,1.1,0.7v7.1l3.2-3
		c0.1-0.1,0.3-0.2,0.4-0.2c0.5,0,1.1,0.6,1.1,1.1c0,0.2-0.1,0.3-0.2,0.4L68.1,16.5z"/>
	<path class="st1" d="M80.8,18c0-2.5-5.5-1.8-5.5-5.8c0-2.5,2.2-3.4,4.1-3.4c1,0,3.2,0.2,3.2,1.4c0,0.4-0.3,1.2-0.9,1.2
		c-0.5,0-0.9-0.6-2.3-0.6c-1.2,0-1.9,0.5-1.9,1.3c0,2.1,5.5,1.4,5.5,5.8c0,2.4-1.7,3.7-4,3.7c-2.2,0-3.9-1.1-3.9-2.1
		c0-0.5,0.4-1.2,1-1.2c0.7,0,1.2,1.3,2.9,1.3C80,19.5,80.8,19,80.8,18z"/>
	<path class="st1" d="M86.8,20.6c0,0.3-0.5,0.7-1.1,0.7c-0.6,0-1.1-0.4-1.1-0.7V9.2c0-0.4,0.4-0.7,1.1-0.7c0.6,0,1.1,0.3,1.1,0.7
		v5.2c0.3-0.7,1.1-1.3,2.1-1.3c1.6,0,2.9,1.6,2.9,3.5v4c0,0.5-0.6,0.7-1.1,0.7c-0.5,0-1.1-0.2-1.1-0.7v-4c0-0.8-0.7-1.5-1.5-1.5
		c-0.7,0-1.4,0.6-1.4,1.5V20.6z"/>
	<path class="st1" d="M100,16.5v4.2c0,0.4-0.5,0.7-1.1,0.7c-0.6,0-1-0.3-1-0.7v-0.5c-0.6,0.7-1.4,1.3-2.6,1.3
		c-1.2,0-2.2-0.7-2.2-2.3c0-2,1.6-2.5,4-2.5h0.7v-0.2c0-0.7-0.4-1.6-1.5-1.6c-1.3,0-1.5,0.5-1.9,0.5c-0.5,0-0.7-0.6-0.7-1.1
		c0-0.7,1.5-1.2,2.7-1.2C99,13.2,100,14.8,100,16.5z M97.8,17.9h-0.3c-1.1,0-2.2,0.1-2.2,1.1c0,0.6,0.4,0.9,0.9,0.9
		c0.7,0,1.6-0.8,1.6-1.6V17.9z"/>
	<path class="st1" d="M104.2,9.2v11.4c0,0.3-0.5,0.7-1.1,0.7c-0.6,0-1.1-0.4-1.1-0.7V9.2c0-0.4,0.4-0.7,1.1-0.7
		C103.7,8.6,104.2,8.8,104.2,9.2z"/>
	<path class="st1" d="M106.1,18V14c0-0.3,0.5-0.7,1.1-0.7c0.6,0,1.1,0.4,1.1,0.7V18c0,0.8,0.7,1.5,1.5,1.5c0.8,0,1.5-0.7,1.5-1.5
		v-4.1c0-0.4,0.5-0.7,1.1-0.7c0.6,0,1.1,0.3,1.1,0.7V18c0,1.8-1.7,3.5-3.7,3.5C107.8,21.5,106.1,19.9,106.1,18z"/>
	<path class="st1" d="M117.5,20.6c0,0.3-0.5,0.7-1.1,0.7c-0.6,0-1.1-0.4-1.1-0.7v-6.7c0-0.4,0.4-0.7,1.1-0.7c0.5,0,1,0.3,1,0.7v0.5
		c0.3-0.7,1.1-1.3,2.3-1.3c1.6,0,2.9,1.6,2.9,3.5v4c0,0.5-0.6,0.7-1.1,0.7c-0.5,0-1.1-0.2-1.1-0.7v-4c0-0.8-0.7-1.5-1.5-1.5
		c-0.7,0-1.4,0.6-1.4,1.5V20.6z"/>
	<path class="st1" d="M126.5,18.6c0,0.7,0.2,0.9,1,0.9h0.7c0.6,0,0.9,0.5,0.9,0.9c0,0.5-0.3,0.9-0.9,0.9h-0.7c-2,0-3.1-0.8-3.1-2.8
		v-8.2c0-0.4,0.6-0.7,1.1-0.7c0.6,0,1.1,0.3,1.1,0.7v2.9h2c0.4,0,0.6,0.4,0.6,0.8c0,0.4-0.2,0.8-0.6,0.8h-2V18.6z"/>
	<path class="st1" d="M134.2,19.1c0-1.5-4-0.6-4-3.4c0-1.2,0.8-2.5,3-2.5c1.4,0,2.7,0.5,2.7,1.1c0,0.3-0.3,1.1-0.8,1.1
		c-0.4,0-0.9-0.5-1.9-0.5c-0.9,0-1.2,0.4-1.2,0.8c0,1.2,4.1,0.4,4.1,3.4c0,1.5-1.1,2.5-3.1,2.5c-1.7,0-3.1-0.7-3.1-1.5
		c0-0.4,0.3-1,0.7-1c0.5,0,0.9,0.8,2.3,0.8C134,19.8,134.2,19.4,134.2,19.1z"/>
</g>
<g>
	<rect y="0.1" class="st2" width="31.9" height="31.9"/>
	<g>
		<polygon class="st3" points="4,13.4 0,13.4 0,17.8 4,17.8 4,25.1 8.9,25.1 8.9,6.6 4,6.6 		"/>
		<path class="st3" d="M25.4,15.6c-1.2-1-3-1.6-5.6-1.9c-1-0.1-1.8-0.3-2.2-0.5c-0.4-0.2-0.6-0.6-0.6-1.1c0-0.5,0.2-0.9,0.6-1.2
			c0.4-0.3,1-0.4,1.8-0.4c0.8,0,1.4,0.2,1.9,0.5c0.4,0.3,0.7,0.8,0.7,1.4h4.7c0-1.2-0.3-2.3-0.9-3.2c-0.6-0.9-1.5-1.6-2.6-2.1
			c-1.1-0.5-2.4-0.8-3.8-0.8c-1.4,0-2.7,0.2-3.8,0.7c-1.1,0.5-1.9,1.1-2.6,2c-0.6,0.9-0.9,1.8-0.9,2.9c0,1.7,0.5,3,1.6,4
			c1.1,1,2.8,1.7,5.2,1.9c1.2,0.1,2,0.3,2.5,0.5c0.5,0.2,0.8,0.6,0.8,1.1c0,0.5-0.2,0.9-0.7,1.2c-0.5,0.3-1.1,0.4-2,0.4
			c-0.9,0-1.6-0.2-2.1-0.5c-0.5-0.4-0.7-0.8-0.7-1.5h-4.7c0,2,0.7,3.5,2,4.6c1.3,1.1,3.2,1.7,5.6,1.7c1.5,0,2.8-0.2,3.9-0.7
			c1.1-0.5,2-1.2,2.7-2c0.6-0.9,1-1.9,1-3C27.1,17.9,26.5,16.6,25.4,15.6z"/>
	</g>
</g>
</svg>
